<?xml version="1.0" encoding="UTF-8"?>
<!DOCTYPE svg PUBLIC "-//W3C//DTD SVG 1.1//EN" "http://www.w3.org/Graphics/SVG/1.1/DTD/svg11.dtd">
<svg xmlns="http://www.w3.org/2000/svg" version="1.1" width="200px" height="64px" style="shape-rendering:geometricPrecision; text-rendering:geometricPrecision; image-rendering:optimizeQuality; fill-rule:evenodd; clip-rule:evenodd" xmlns:xlink="http://www.w3.org/1999/xlink">
<g><path style="opacity:0.97" fill="#fefffe" d="M -0.5,-0.5 C 24.8333,-0.5 50.1667,-0.5 75.5,-0.5C 75.5,15.1667 75.5,30.8333 75.5,46.5C 50.1667,46.5 24.8333,46.5 -0.5,46.5C -0.5,30.8333 -0.5,15.1667 -0.5,-0.5 Z"/></g>
<g><path style="opacity:0.925" fill="#fefffe" d="M 79.5,-0.5 C 88.1667,-0.5 96.8333,-0.5 105.5,-0.5C 110.616,0.438585 114.116,3.43858 116,8.5C 116.667,12.8333 116.667,17.1667 116,21.5C 114.576,24.5922 112.743,27.4255 110.5,30C 113.12,34.7392 115.62,39.5725 118,44.5C 118.5,29.5037 118.667,14.5037 118.5,-0.5C 123.167,-0.5 127.833,-0.5 132.5,-0.5C 136.321,6.47291 140.154,13.4729 144,20.5C 144.5,13.5079 144.666,6.50793 144.5,-0.5C 149.167,-0.5 153.833,-0.5 158.5,-0.5C 158.5,15.1667 158.5,30.8333 158.5,46.5C 154.154,46.6657 149.821,46.499 145.5,46C 141.667,39.5 137.833,33 134,26.5C 133.5,33.1583 133.334,39.825 133.5,46.5C 123.161,46.6665 112.828,46.4998 102.5,46C 99.9969,41.1489 97.4969,36.3156 95,31.5C 94.5007,36.4889 94.3341,41.4889 94.5,46.5C 89.5,46.5 84.5,46.5 79.5,46.5C 79.5,30.8333 79.5,15.1667 79.5,-0.5 Z M 94.5,11.5 C 101.285,10.6259 103.285,13.1259 100.5,19C 98.5643,19.813 96.5643,20.313 94.5,20.5C 94.5,17.5 94.5,14.5 94.5,11.5 Z"/></g>
<g><path style="opacity:0.923" fill="#fefffe" d="M 174.5,-0.5 C 181.167,-0.5 187.833,-0.5 194.5,-0.5C 195.568,0.434475 196.901,0.767809 198.5,0.5C 198.588,4.30553 197.921,7.9722 196.5,11.5C 191.26,11.5742 185.926,11.7409 180.5,12C 178.667,12.5 177.5,13.6667 177,15.5C 176.333,20.5 176.333,25.5 177,30.5C 178.677,34.0511 181.51,35.3845 185.5,34.5C 185.5,29.1667 185.5,23.8333 185.5,18.5C 190.167,18.5 194.833,18.5 199.5,18.5C 199.5,27.1667 199.5,35.8333 199.5,44.5C 165.971,53.1376 153.804,40.8043 163,7.5C 166.15,3.68926 169.983,1.0226 174.5,-0.5 Z"/></g>
<g><path style="opacity:0.711" fill="#fefffe" d="M -0.5,51.5 C 2.83333,51.5 6.16667,51.5 9.5,51.5C 9.5,52.5 9.5,53.5 9.5,54.5C 8.5,54.5 7.5,54.5 6.5,54.5C 6.5,57.5 6.5,60.5 6.5,63.5C 5.16667,63.5 3.83333,63.5 2.5,63.5C 2.5,60.5 2.5,57.5 2.5,54.5C 1.5,54.5 0.5,54.5 -0.5,54.5C -0.5,53.5 -0.5,52.5 -0.5,51.5 Z"/></g>
<g><path style="opacity:0.688" fill="#fefffe" d="M 29.5,63.5 C 26.5,63.5 23.5,63.5 20.5,63.5C 20.5,59.5 20.5,55.5 20.5,51.5C 23.5,51.5 26.5,51.5 29.5,51.5C 29.5,52.5 29.5,53.5 29.5,54.5C 23.8333,54.6636 23.5,54.9969 28.5,55.5C 28.5,56.8333 28.5,58.1667 28.5,59.5C 23.5,60.0031 23.8333,60.3364 29.5,60.5C 29.5,61.5 29.5,62.5 29.5,63.5 Z"/></g>
<g><path style="opacity:0.681" fill="#fefffe" d="M 48.5,63.5 C 46.5,63.5 44.5,63.5 42.5,63.5C 38.2092,55.4014 40.5425,51.4014 49.5,51.5C 49.5,52.5 49.5,53.5 49.5,54.5C 44.8415,54.0146 43.5081,55.848 45.5,60C 46.938,60.2189 48.2713,60.7189 49.5,61.5C 49.1373,62.1835 48.8039,62.8501 48.5,63.5 Z"/></g>
<g><path style="opacity:0.776" fill="#fefffe" d="M 70.5,63.5 C 69.5,63.5 68.5,63.5 67.5,63.5C 67.5,62.1667 67.5,60.8333 67.5,59.5C 66.5,59.5 65.5,59.5 64.5,59.5C 64.5,60.8333 64.5,62.1667 64.5,63.5C 63.1667,63.5 61.8333,63.5 60.5,63.5C 60.5,59.5 60.5,55.5 60.5,51.5C 61.8333,51.5 63.1667,51.5 64.5,51.5C 64.5,52.8333 64.5,54.1667 64.5,55.5C 65.5,55.5 66.5,55.5 67.5,55.5C 67.5,54.1667 67.5,52.8333 67.5,51.5C 68.5,51.5 69.5,51.5 70.5,51.5C 70.5,55.5 70.5,59.5 70.5,63.5 Z"/></g>
<g><path style="opacity:0.84" fill="#fefffe" d="M 92.5,63.5 C 91.5,63.5 90.5,63.5 89.5,63.5C 87.4791,58.6341 86.4791,58.6341 86.5,63.5C 85.5,63.5 84.5,63.5 83.5,63.5C 83.5,59.5 83.5,55.5 83.5,51.5C 86.2919,51.4521 88.1253,52.7854 89,55.5C 89.49,54.2068 89.6567,52.8734 89.5,51.5C 90.5,51.5 91.5,51.5 92.5,51.5C 92.5,55.5 92.5,59.5 92.5,63.5 Z"/></g>
<g><path style="opacity:0.72" fill="#fefffe" d="M 113.5,63.5 C 111.167,63.5 108.833,63.5 106.5,63.5C 103.888,59.6642 103.888,55.8308 106.5,52C 114.508,50.3451 117.341,53.5117 115,61.5C 114.283,62.0442 113.783,62.7109 113.5,63.5 Z M 109.5,54.5 C 111.924,56.2276 112.09,58.2276 110,60.5C 108.2,58.6349 108.034,56.6349 109.5,54.5 Z"/></g>
<g><path style="opacity:0.734" fill="#fefffe" d="M 135.5,63.5 C 132.833,63.5 130.167,63.5 127.5,63.5C 127.5,59.5 127.5,55.5 127.5,51.5C 128.833,51.5 130.167,51.5 131.5,51.5C 131.5,54.5 131.5,57.5 131.5,60.5C 132.833,60.5 134.167,60.5 135.5,60.5C 135.5,61.5 135.5,62.5 135.5,63.5 Z"/></g>
<g><path style="opacity:0.745" fill="#fefffe" d="M 155.5,63.5 C 152.833,63.5 150.167,63.5 147.5,63.5C 146.508,60.2214 146.341,56.8881 147,53.5C 149.76,51.297 152.76,50.9637 156,52.5C 156.755,56.2554 156.589,59.9221 155.5,63.5 Z M 151.5,54.5 C 154.106,56.4211 154.106,58.4211 151.5,60.5C 150.306,58.4844 150.306,56.4844 151.5,54.5 Z"/></g>
<g><path style="opacity:0.675" fill="#fefffe" d="M 178.5,63.5 C 175.833,63.5 173.167,63.5 170.5,63.5C 167.595,59.348 167.928,55.5147 171.5,52C 173.902,51.1859 176.235,51.3526 178.5,52.5C 178,53.5 177.5,54.5 177,55.5C 173.159,54.0052 171.826,55.3385 173,59.5C 173.483,58.552 173.649,57.552 173.5,56.5C 175.167,56.5 176.833,56.5 178.5,56.5C 178.5,58.8333 178.5,61.1667 178.5,63.5 Z"/></g>
<g><path style="opacity:0.66" fill="#fefffe" d="M 199.5,51.5 C 199.5,52.5 199.5,53.5 199.5,54.5C 197.132,56.9557 196.132,59.9557 196.5,63.5C 195.167,63.5 193.833,63.5 192.5,63.5C 192.455,59.2388 191.122,55.4054 188.5,52C 190.807,51.2214 192.807,51.7214 194.5,53.5C 195.842,51.9951 197.508,51.3285 199.5,51.5 Z"/></g>
</svg>
